<svg id="Layer_1" data-name="Layer 1" xmlns="http://www.w3.org/2000/svg" viewBox="0 0 491.58 399.44"><defs><style>.cls-1{fill:#fff;}</style></defs><path class="cls-1" d="M380,.6a60.92,60.92,0,0,0,4.4,5.2,162.91,162.91,0,0,1,10.4,13.8A176.76,176.76,0,0,0,407,35.2c6.2,6.9,20.3,18.8,22.2,18.8,2.9,0-4.5-19.9-10.7-28.6A58.07,58.07,0,0,0,396.6,6.5C390.1,3.3,380-.3,380,.6Z" transform="translate(-0.16 -0.46)"/><path class="cls-1" d="M100.4,5.4C87.2,10.5,78.7,16.5,72,25.4c-6.6,8.7-13,23.7-13,30.3v2.4L63.6,55C73,48.5,81.1,39.7,89.8,26.6c4.8-7.2,9.4-13.8,10.2-14.7s3.1-3.2,4.9-5.2C109,2.4,108.6,2.3,100.4,5.4Z" transform="translate(-0.16 -0.46)"/><path class="cls-1" d="M232.5,12.9c-6.1,2.8-14.9,12.9-19.7,22.9-4.2,8.6-4.3,8.9-4.6,20.9-.3,8.6.1,14.6,1.3,20.5,2.6,13.4,9.4,32.2,17.2,47.8,4,7.9,7.1,14.6,6.9,14.8-.7.6-7.4-8.4-11.8-16-6.4-11-15.4-31.2-17.4-38.8-1.3-5.3-1.5-9-1-19.6.7-12.5.6-13.1-1.5-15s-2.1-1.9-4.9,1.4c-4.6,5.5-7.1,13.5-7.7,24.7-.7,13.6.6,19.9,7.2,33,5.4,10.7,8.3,14.9,23,33.1a117.81,117.81,0,0,1,7.4,9.6c.2.6-1.5,0-3.8-1.3-6.4-3.6-24.1-22.3-28.9-30.6-5.6-9.5-6-10.8-8.8-25.8-1.3-7.1-2.8-13.3-3.2-13.7s-1.4-.3-2.2.2c-1.3.8-1.5,4.3-1.5,21.2,0,18.6.2,20.9,2.3,27,5.2,14.9,24.5,36.3,45.8,50.5,7.2,4.9,2.6,4.2-8.4-1.2s-17.9-10.2-28.5-20.4c-8.9-8.5-11.4-12.8-15.3-26.2-1.5-5.2-3.4-10.1-4.1-10.9-1.3-1.3-1.6-1.3-2.8.4-2,2.7-3.6,10.8-4.2,21.8-.6,9.1-.4,10,2.2,15.3a61.17,61.17,0,0,0,8.9,12.2c12,12.9,25,20.6,48.1,28.7,7,2.4,7,2.5,2.9,2.5-6.1.1-20.4-4.3-31.9-9.8-11.9-5.8-17.5-9.7-21.5-15.3l-3-4.1v3.7c0,5.6,2.2,9.7,7.9,14.8,9.3,8.4,28.9,14.9,45.3,15.2,5.3.1,10,.4,10.3.7,1.2,1.3-8.8,2.9-17.8,2.9a57.64,57.64,0,0,1-18.2-2.5c-4.8-1.4-9-2.3-9.3-2.1-2.3,2.3,6.3,12.2,13.8,15.8,3.8,1.9,6.1,2.2,14.9,2.1,9,0,10.2.1,8.7,1.3-4.2,3.1-18.6,3.1-24.8,0-3.9-2-3.8-2-3.8.8s4.6,7.1,9.7,9.3,15,1.3,26.6-2.3c.9-.3,1.7,0,1.7.6,0,2.1-7.5,4.2-16.9,4.9-6.2.4-9.6,1-9.9,1.9-.2.7,1.1,2.7,3,4.6,5.8,5.8,17.8,7,28.1,2.9,5.3-2.2,5.7-1,.6,2.4-3.7,2.4-5.2,2.8-11.6,2.8-7.2,0-7.3.1-5.3,1.7,4.8,3.9,16.8,5,25.4,2.4a61.38,61.38,0,0,0,11.7-5.7c3.8-2.3,7.3-3.9,7.6-3.5s-1.9,3.1-4.9,6.1c-6.6,6.3-9.8,7.4-23,7.9-7.6.3-10.4.9-15.3,3.2-5.1,2.4-7.3,2.8-14.5,2.8-20,.1-38.4-7.8-64.4-27.3-11.1-8.4-26.4-24.1-33.1-34-2.7-4.1-5.4-7.4-6-7.3s-1.1,4.4-1.3,9.8l-.3,9.7,4.2,7.1c7.9,13.3,28.3,31.9,46.1,42,13.2,7.5,33.1,12.5,44.1,11.3,4.3-.5,4.9-.4,3.2.6-1.2.7-5.9,1.1-12,1.1-22.6-.2-46.2-10.8-66.2-29.8-7.1-6.7-18.9-22-20.5-26.7-.3-.8-.8-1.1-1.2-.8-1.2,1.1,1.5,6.3,8.4,16,6.2,8.7,7.1,10.5,7.9,16.3a43.12,43.12,0,0,0,1.5,7.5c1.3,2,15.9,10.5,24.4,14.1,10.8,4.6,18.9,6.7,33.9,8.5,6.4.8,11.8,1.7,12.1,2s-2.9.5-7,.5c-18.5,0-41.1-7-56.6-17.4-7.2-4.8-6.7-2.2,1.1,5,8.5,7.9,16.8,13,25.2,15.7,5.7,1.8,9.2,2.2,19.1,2.1,6.7-.1,13.4-.4,15-.8,2-.5,2.6-.4,1.9.3-1.4,1.4-12.7,3.1-20.7,3.1a55,55,0,0,1-33.1-10.7c-4.6-3.4-4.9-3.5-3.3-1,2.4,3.5,12.7,11.9,19,15.3a135.8,135.8,0,0,1,13,8.6c7.8,5.9,13.4,8.8,16.4,8.8.9,0,3.9-2.4,6.7-5.3,5.6-5.9,19.6-17.5,26.4-21.8a46,46,0,0,1,9.5-4.5c2.8-1,5.6-2.3,6.1-3,.7-1,2.2-1.1,5.5-.4a73.79,73.79,0,0,0,9.8,1c3.8,0,5.2.4,5,1.2s-3.9,1.5-11,1.9c-9,.5-11.3,1-17,3.8a100.89,100.89,0,0,0-13.4,8.7c-3.8,3-8.9,6.8-11.3,8.4-3.6,2.4-4.1,3.1-2.7,3.6,2.5,1,5.1-.6,15.1-9,5-4.2,11.7-9,14.9-10.6,5.9-3,6.1-3,22.5-3,9.1,0,17.3.5,18.1,1,1,.7-2.3,1-10.5,1.1-10.7.1-11.5.2-7,1.1,6.8,1.3,26.3-.5,34-3.2,22-7.6,35.1-18.1,43.9-35,8.6-16.6,17.4-30.6,22-34.8,4.4-4.1,6.2-4.9,12-5.4l2.9-.3-5.1-6.1c-6.7-8-11.7-11.4-16.8-11.4-5.7,0-16.7,5.7-24.6,12.8-3.7,3.3-8.3,7.2-10.2,8.7-3,2.2-3.6,3.4-3.6,6.4,0,4.4-1.4,7.1-2.4,4.6a13.55,13.55,0,0,1-.6-3.6c0-1-.4-1.9-1-1.9s-1,2.2-1,4.8c0,3.9-.6,5.8-3.1,9.1-1.7,2.4-3.2,4.1-3.5,3.8s.5-2.6,1.7-5.3c2-4.4,2.1-5.5,1.1-11.7a33.29,33.29,0,0,0-5-13.5c-2.2-3.7-3.8-6.9-3.6-7.1.9-1,4.5,3.5,7.6,9.5,3.3,6.5,5.8,8.2,5.8,4.1,0-4.3-15.4-29.8-25.3-41.9-17.7-21.7-27.6-36.3-33.9-49.7-8.4-17.9-12.6-30.1-15.2-44-2.1-11-2-16.3.5-28.4,2.2-11.2,5.2-17.1,12.2-24.8,7.7-8.2,9.7-11,9.7-13.5,0-2.2-.4-2.4-4.2-2.4A23.9,23.9,0,0,0,232.5,12.9Z" transform="translate(-0.16 -0.46)"/><path class="cls-1" d="M428.8,25.7c4.8,6.9,7.6,14.6,11.8,32.7C443,68.9,445,78.1,445,78.9s-3.7-2.1-8.2-6.5a159.25,159.25,0,0,0-18.5-14.7c-5.6-3.7-12.2-9-14.8-11.9-4.3-5-4.6-5.1-3.9-2.3,1.2,5.6,7.7,17.5,12.5,22.9a131.16,131.16,0,0,0,14.6,12.7c5.3,4.1,13.8,11.3,18.9,16.2,8.4,8,9.2,8.5,9.8,6.5,1-3.7.7-34.8-.4-41.5-1.8-10.9-9.1-24.3-17-31S425.2,20.7,428.8,25.7Z" transform="translate(-0.16 -0.46)"/><path class="cls-1" d="M54,29.4C45.7,34.9,39.9,43.8,36.3,57c-1.5,5.3-1.8,10.4-1.8,27.7,0,11.6.3,21.4.6,21.8s3.7-2.7,7.5-6.6a207.34,207.34,0,0,1,17-15C76.5,71.8,83.6,63,87.3,50.2c1.7-5.4,1-6.8-1.5-3-2.9,4.4-9.4,10-17.7,15.5A127.32,127.32,0,0,0,52.2,75.5c-4.2,4.1-7.7,7.3-7.9,7.1s.5-3.7,1.6-7.7S48.7,63,49.5,57.5c1.8-11.3,4.5-20,8.2-26.2C60.6,26.4,59.5,25.8,54,29.4Z" transform="translate(-0.16 -0.46)"/><path class="cls-1" d="M463.6,64.2c1.6,7.6,1.7,20.7.3,30.3-.6,3.8-1.4,14-1.7,22.5l-.7,15.5-3.4-6.9c-4.7-9.4-10.7-17.3-17.2-22.5-3-2.5-8.2-7.2-11.6-10.5s-6.5-5.7-6.8-5.4c-1,1,2.4,12.7,5.5,19,1.5,3.1,6.5,10.7,11.2,17,8.9,12,12.6,18,19.8,32,2.5,4.8,4.7,8.4,5.1,8a31.8,31.8,0,0,0,1.9-5.7c.7-2.8,3.7-11.2,6.7-18.8,6.8-17.6,8.1-25.7,6.4-40.4-1.5-13.3-4.9-23.9-10.3-32.7C463.1,56.4,461.8,56.1,463.6,64.2Z" transform="translate(-0.16 -0.46)"/><path class="cls-1" d="M22.1,67.3a86.72,86.72,0,0,0-9.7,25c-2.1,10.3-1.4,28,1.5,37.7,2.1,7.3,12,35.2,12.6,35.8.2.2,2.7-4.1,5.4-9.7,6-11.9,9.9-18.1,18.7-29.8,9.1-12,17.7-30.2,16.3-34.1-.2-.6-6.7,4.7-14.4,11.7-13.6,12.3-14.2,12.9-19,22.6l-5,10-.7-9.5c-.4-5.2-1.5-16.4-2.4-24.9a157.65,157.65,0,0,1-.9-26.7c.4-6.3.5-11.4.2-11.4S23.3,65.5,22.1,67.3Z" transform="translate(-0.16 -0.46)"/><path class="cls-1" d="M360.1,66.6c-13.1,3.5-28,18.9-37.6,38.9-7.1,14.7-8.3,19.1-9.1,35-.5,9-1,13.3-1.7,12.6-1.5-1.5-.2-25.5,1.7-32.6,3.1-11.2,9.1-22.6,18.5-34.8,2.4-3.1,4.2-6,3.9-6.2-1.2-1.3-12,3.9-16.4,7.8-6.5,5.7-13.6,20.7-17.1,36.1-2.1,9.5-2.4,12.8-2,23.1.2,6.6.8,13,1.2,14.2,1.2,3.7-2.2,2.9-4.1-.9-4.1-8-2-32.3,4.1-47,1.4-3.5,2.9-7,3.1-7.8s-1.7.9-4.5,3.8c-12.5,13.1-21,36.2-21.1,57.1,0,6.1.4,7,7.9,21,4.4,8,9.2,17.6,10.6,21.3s2.9,6.8,3.2,6.8c.6,0,18.1-14.9,18.8-16,.4-.6-.1-5.5-1-10.9-1.3-7.6-1.6-14-1.2-27.3.6-22.1,3.2-33.9,11.1-50.4,10.8-22.5,21.4-34.2,37.4-41.6,3.4-1.5,6.2-3,6.2-3.3C372,64.5,365.5,65.1,360.1,66.6Z" transform="translate(-0.16 -0.46)"/><path class="cls-1" d="M487.1,124c-1.9,14.3-5.1,24.5-13.1,41.4-5.5,11.8-8.4,21.1-10,32.5-.6,4-1.4,7.8-1.8,8.5s-.9-5.2-1.2-12.9c-.5-12.9-.8-14.6-3.8-21.5a87.43,87.43,0,0,0-8.3-14.5,119.11,119.11,0,0,1-9-15l-3.8-8L436,141c0,13.8,3.2,28.8,11,52a112.4,112.4,0,0,1,5.4,23.3c.8,6.5,1.6,12.1,1.9,12.3s1.8-1.3,3.3-3.6c4.3-6.1,13.2-17.9,17.4-23,5.4-6.5,9.4-14.3,12.6-24,2.2-7,2.8-10.9,3.2-21.9.4-12.6-.8-25.4-2.8-30.5C487.5,124.4,487.1,123.7,487.1,124Z" transform="translate(-0.16 -0.46)"/><path class="cls-1" d="M2.4,131.5c-.5,1.6-.9,12.2-.9,23.5,0,20.5,0,20.5,3.2,29.7,3.8,11,6.7,15.7,14.2,23.8a166.63,166.63,0,0,1,11.6,14.8c3.3,4.8,6.3,8.7,6.6,8.7s1-3,1.4-6.8c1.1-11.1,4.3-27.3,6.5-33.7,4.3-12.2,8-30.7,8.6-42.5l.5-11.5L49.7,146c-2.4,4.7-6.4,11.6-8.9,15.5-6.7,10.3-9.6,18-11.2,29.7-.7,5.7-1.6,9.6-1.9,8.8s-2-5.6-3.6-10.6a192.78,192.78,0,0,0-7.6-19c-6.9-14.6-8.4-18.9-10.9-30.9C3.5,129.8,3.2,128.8,2.4,131.5Z" transform="translate(-0.16 -0.46)"/><path class="cls-1" d="M434.6,195.1c-3.6,9-5.6,20.6-6.6,37.9-1.5,28-2.7,35.8-7.1,48.3-1.1,3.2-1.9,6.2-1.7,6.8.7,2.2,26.7-13.9,39.1-24.2,16.5-13.9,27.8-30.8,31.5-47.4,1.7-7.3,2.5-18.2,1.5-18.8-.4-.3-3,3.7-5.7,8.9-4.2,8-7.1,11.7-18.4,23.7-7.3,7.8-16.4,17.9-20,22.4s-7,8.3-7.4,8.3c-1,0-1.1.6,1.2-6.8,2.7-8.8,2.8-26.8,0-38.5-1-4.6-2.3-11.8-2.9-16.1s-1.1-8-1.4-8.2S435.5,192.8,434.6,195.1Z" transform="translate(-0.16 -0.46)"/><path class="cls-1" d="M51.6,209.3c-4.5,22.4-4.7,23.8-4.1,31.2a122.51,122.51,0,0,0,2.6,15.3c1.2,4.6,1.9,8.6,1.6,8.8s-3.7-3.5-7.8-8.3-12-13.7-17.6-19.6c-11.4-12-16.8-18.8-20.6-26.2a48.67,48.67,0,0,0-4.2-7C0,201.6-.1,202,.5,210c.7,10.4,2,15.7,5.6,23.8,8.2,18.2,29.7,38.4,56.2,52.7,4.8,2.6,9.1,4.4,9.4,4.1s-.5-4.4-2-8.9A204.09,204.09,0,0,1,61.9,241c-2.4-28.9-3-33.9-4.5-39-.9-3-1.9-5.8-2.3-6.2S53.2,201.5,51.6,209.3Z" transform="translate(-0.16 -0.46)"/><path class="cls-1" d="M413.4,245.8c-8.8,10.6-14.5,22.2-20.5,41.6-6,19.7-9.8,27.8-18.7,40.5-1.6,2.4-1.6,2.4,1.3,1.9,8.1-1.4,30.7-6.1,36.3-7.5,18.3-4.5,39.2-19.5,50.8-36.3,3.7-5.3,10.7-20.1,9.9-20.9-.2-.2-3.5,2.8-7.2,6.6-6.8,7-17.6,14.7-24.3,17.3-7.9,3-25.1,12.2-34.5,18.3-5.5,3.6-10.1,6.4-10.4,6.2s.8-2.2,2.2-4.3c8.1-12.4,13.8-28,16.1-45.1.9-6.1,2-13,2.6-15.4C418.8,240.7,418.1,240.1,413.4,245.8Z" transform="translate(-0.16 -0.46)"/><path class="cls-1" d="M73,245.2a97.52,97.52,0,0,0,1.9,10,179.32,179.32,0,0,1,3,18.3c1.5,14.4,4.3,21.5,14.4,36.5,2,3,3.3,5.6,2.8,5.8s-3.6-1.4-6.8-3.6c-6.8-4.6-14-8.3-27.8-14.2-13.2-5.7-22.1-11.6-32.8-21.9-4.8-4.6-8.7-8.1-8.7-7.7,0,1.8,7.3,14.8,11.6,20.6,13.3,18.1,31.7,30.2,57.4,37.7,9.3,2.8,29,6.4,30.2,5.7.4-.3-1.7-4.1-4.7-8.5A108.5,108.5,0,0,1,99,294.5c-4.5-14.8-9.1-25.9-14.5-35.1C78.2,248.8,73.1,242.4,73,245.2Z" transform="translate(-0.16 -0.46)"/><path class="cls-1" d="M377,294.8A156.17,156.17,0,0,0,353.3,317c-9.3,10.7-17.1,16.7-29.8,22.9-6.1,3-9.4,5.1-8.5,5.5s11,2.8,22.5,5.7l21,5.1,15-.4c17.2-.5,25.9-2.8,37.4-9.5,6.6-3.9,23-18.7,21.9-19.8-.3-.4-2.8.5-5.5,1.8-10.1,5.1-23.1,8.4-35.8,9.1-14.1.8-43.2,3.5-45.7,4.2-4,1.2-1.4-1.6,4.8-5.2,14.1-8.2,21.5-16.9,24.9-28.9a48.17,48.17,0,0,1,4.1-10.2C383.2,291,382.7,290.4,377,294.8Z" transform="translate(-0.16 -0.46)"/><path class="cls-1" d="M109,295.3c0,2.2,7.7,17.3,11.9,23.5,4.6,6.8,14.7,16.6,21.3,20.7,5.6,3.5,6.1,4.8,1.6,4.1-6.2-1-24.3-2.6-40.8-3.6-19.2-1.2-25.5-2.6-35.9-8-4.1-2.2-7.7-3.8-7.9-3.5s2.2,3.2,5.4,6.6C84.5,356,107.8,362.8,140,357c11.2-2.1,36.8-8.4,37.8-9.5.7-.7,1.1-.5-9.8-5.9-13.2-6.7-19.8-11.7-32-24.1-10.9-11.1-24.7-23.5-26.2-23.5C109.4,294,109,294.6,109,295.3Z" transform="translate(-0.16 -0.46)"/><path class="cls-1" d="M209,347.1c-9.4,1.1-22.1,5.1-36.7,11.5-19.6,8.5-24.2,10.1-33.3,11.5-9.4,1.3-22.6.7-31-1.6-7.9-2.1-9-1.9-5.5,1,9.9,8.3,23.5,13.9,37.1,15.5,18.3,2,33-3.2,60.2-21.8,6.8-4.6,14.3-9,16.7-9.8,4.7-1.6,17.4-1.5,17.7.1,0,.5-1.7,1.9-3.8,3-17,8.8-40.6,26.4-46.5,34.6l-1.9,2.7,3.8,3,3.8,3.1,12-11.5c18.6-17.9,37.9-31.4,44.8-31.4,6.4,0,25.1,13.4,42.4,30.4,6.2,6.1,11.8,11.2,12.5,11.4,1.5.3,7.7-5.5,7.7-7.3,0-3.2-21.2-19.8-40.2-31.4-4.9-3-8.8-5.7-8.8-6.1,0-1.1,3.9-2,9-2,6.4.1,14.2,3.6,24,11.1,17.8,13.5,37.6,21,55.5,21.1,10.8,0,18.4-2.1,28.3-8,6.7-4,16.7-13.3,12.7-11.7-17.4,6.7-34.6,7.2-52,1.3-3.3-1.1-11.9-4.9-19.2-8.4-17-8.2-26.5-10.6-42.8-10.7a123.63,123.63,0,0,0-21.3,1.8c-8.6,1.6-9.9,1.6-18,.2C224.7,346.6,216.9,346.1,209,347.1Z" transform="translate(-0.16 -0.46)"/></svg>